<?xml version="1.0" standalone="no"?><!DOCTYPE svg PUBLIC "-//W3C//DTD SVG 1.1//EN" "http://www.w3.org/Graphics/SVG/1.1/DTD/svg11.dtd"><svg t="1751859514677" class="icon" viewBox="0 0 1024 1024" version="1.1" xmlns="http://www.w3.org/2000/svg" p-id="5217" xmlns:xlink="http://www.w3.org/1999/xlink" width="200" height="200"><path d="M408.770999 812.773145a52.165337 52.165337 0 0 1-53.020506-51.310167V263.754356A51.737752 51.737752 0 0 1 408.770999 214.154528a53.875676 53.875676 0 0 1 35.489532 13.255126l292.040368 248.426726a50.027413 50.027413 0 0 1 0 75.682497l-292.467953 248.854311a52.592921 52.592921 0 0 1-35.061947 12.399957z m-6.841356-61.572201z m17.958559-462.219089v445.97087L681.997639 513.463836z m-17.530974-14.965466z" fill="#5E5C5C" p-id="5218"></path><path d="M513.101672 1024A513.101672 513.101672 0 0 1 150.082239 150.016819 510.108579 510.108579 0 0 1 312.564435 40.127544 513.101672 513.101672 0 0 1 873.983181 150.016819 513.101672 513.101672 0 0 1 711.073401 983.807036a507.543071 507.543071 0 0 1-197.971729 40.192964zM513.101672 64.499873a448.108794 448.108794 0 0 0-175.309738 860.30047 451.101887 451.101887 0 0 0 348.481552 0 446.398455 446.398455 0 0 0 142.385714-96.206563A447.681209 447.681209 0 0 0 513.101672 64.499873z" fill="#5E5C5C" p-id="5219"></path></svg>