<?xml version="1.0" standalone="no"?><!DOCTYPE svg PUBLIC "-//W3C//DTD SVG 1.1//EN" "http://www.w3.org/Graphics/SVG/1.1/DTD/svg11.dtd"><svg t="1753064306619" class="icon" viewBox="0 0 1024 1024" version="1.1" xmlns="http://www.w3.org/2000/svg" p-id="13677" id="mx_n_1753064306620" xmlns:xlink="http://www.w3.org/1999/xlink" width="200" height="200"><path d="M186 378.96a28 28 0 0 1 12.433 2.91l0.501 0.255 272 141.667a28 28 0 0 1 15.062 24.38l0.004 0.454v349.96c0 15.464-12.536 28-28 28a28 28 0 0 1-12.433-2.912l-0.501-0.255-272-141.666a28 28 0 0 1-15.062-24.38l-0.004-0.454v-349.96c0-15.464 12.536-28 28-28z m652 0c15.464 0 28 12.535 28 28v349.959a28 28 0 0 1-15.066 24.834l-272 141.666A28 28 0 0 1 566 926.586c-15.464 0-28-12.536-28-28v-349.96a28 28 0 0 1 15.066-24.834l272-141.667A28 28 0 0 1 838 378.96zM528.028 99.355l321.918 180.62a28.37 28.37 0 0 1 11.321 11.717c7.191 13.913 1.747 31.018-12.159 38.205L526.744 496.493a28.34 28.34 0 0 1-26.456-0.23L173.236 320.016a28.37 28.37 0 0 1-11.69-11.844c-7.248-13.884-1.875-31.011 12-38.256l327.499-170.97a28.34 28.34 0 0 1 26.983 0.41z" fill="#e3a931" p-id="13678"></path></svg>