<?xml version="1.0" standalone="no"?><!DOCTYPE svg PUBLIC "-//W3C//DTD SVG 1.1//EN" "http://www.w3.org/Graphics/SVG/1.1/DTD/svg11.dtd"><svg t="1753063961807" class="icon" viewBox="0 0 1024 1024" version="1.1" xmlns="http://www.w3.org/2000/svg" p-id="7338" xmlns:xlink="http://www.w3.org/1999/xlink" width="200" height="200"><path d="M691.833905 195.193905c13.165714 0 25.746286 4.87619 35.498666 13.458285l4.632381 4.58362 159.646477 179.931428a53.638095 53.638095 0 0 1 2.925714 67.632762l-4.096 4.827429-360.350476 380.68419a53.638095 53.638095 0 0 1-73.386667 4.291048l-4.534857-4.291048-360.399238-380.68419a53.638095 53.638095 0 0 1-5.12-67.486477l3.900952-4.973714 159.500191-179.931428a53.638095 53.638095 0 0 1 33.645714-17.65181l6.485333-0.390095h401.65181zM394.48381 466.944a24.673524 24.673524 0 0 0-31.500191-2.82819l-3.413333 2.82819a24.673524 24.673524 0 0 0-2.876953 31.50019l2.876953 3.413334 117.662476 117.51619a19.553524 19.553524 0 0 0 24.576 2.486857l3.023238-2.486857 117.564952-117.51619a24.673524 24.673524 0 0 0 2.925715-31.500191l-2.876953-3.413333a24.576 24.576 0 0 0-31.353904-2.925714l-3.413334 2.925714-82.846476 82.797714a19.504762 19.504762 0 0 1-24.527238 2.486857l-3.023238-2.438095L394.48381 466.895238z" fill="#f0e73a" p-id="7339"></path></svg>