<?xml version="1.0" standalone="no"?><!DOCTYPE svg PUBLIC "-//W3C//DTD SVG 1.1//EN" "http://www.w3.org/Graphics/SVG/1.1/DTD/svg11.dtd"><svg t="1752542181206" class="icon" viewBox="0 0 1024 1024" version="1.1" xmlns="http://www.w3.org/2000/svg" p-id="5438" xmlns:xlink="http://www.w3.org/1999/xlink" width="200" height="200"><path d="M826.48 660.9c-60.456 0-109.88 32.358-132.9 82.596L401.373 619.203c17.045-26.404 26.41-58.768 26.41-93.666 0-14.459-1.706-28.943-5.12-42.573l186.572-144.752c24.72 18.729 56.253 29.798 91.177 29.798 84.347 0 147.38-63.012 147.38-146.432 0-83.45-63.054-146.462-147.38-146.462-84.352 0-146.535 63.011-146.535 146.462 0 21.29 4.265 40.868 11.07 57.892L392.837 411.433c-34.068-51.087-90.301-86.856-154.194-86.856-104.192-0.26-188.866 83.989-189.122 188.18a23.803 23.803 0 0 0 0 0.856c-0.2 104.192 84.106 188.815 188.298 189.015h0.83c39.188 0 75.811-10.194 105.635-28.928l335.683 143.032c4.27 79.176 65.602 137.923 146.509 137.923 84.372 0 146.554-62.992 146.554-146.437s-63.058-147.313-146.529-147.313h-0.02z" p-id="5439"></path></svg>