<?xml version="1.0" standalone="no"?><!DOCTYPE svg PUBLIC "-//W3C//DTD SVG 1.1//EN" "http://www.w3.org/Graphics/SVG/1.1/DTD/svg11.dtd"><svg t="1753240809535" class="icon" viewBox="0 0 1024 1024" version="1.1" xmlns="http://www.w3.org/2000/svg" p-id="8735" xmlns:xlink="http://www.w3.org/1999/xlink" width="200" height="200"><path d="M0 0h1024v1024H0z" fill="#FFFFFF" p-id="8736"></path><path d="M512 51.2a460.8 460.8 0 1 0 460.8 460.8 460.8 460.8 0 0 0-460.8-460.8z m0 57.856A403.456 403.456 0 0 1 914.944 512a398.336 398.336 0 0 1-86.016 247.808 350.72 350.72 0 0 0-640.512-8.704A402.432 402.432 0 0 1 512 109.056z" fill="#2c2c2c" p-id="8737" data-spm-anchor-id="a313x.search_index.0.i3.4a4c3a81EcVSho" class="selected"></path><path d="M338.944 359.424a171.008 168.448 0 1 0 342.016 0 171.008 168.448 0 1 0-342.016 0Z" fill="#2c2c2c" p-id="8738" data-spm-anchor-id="a313x.search_index.0.i4.4a4c3a81EcVSho" class="selected"></path></svg>