<?xml version="1.0" standalone="no"?><!DOCTYPE svg PUBLIC "-//W3C//DTD SVG 1.1//EN" "http://www.w3.org/Graphics/SVG/1.1/DTD/svg11.dtd"><svg t="1753064451064" class="icon" viewBox="0 0 1031 1024" version="1.1" xmlns="http://www.w3.org/2000/svg" p-id="15284" xmlns:xlink="http://www.w3.org/1999/xlink" width="201.3671875" height="200"><path d="M0 0m41.361077 0l370.996328 0q41.361077 0 41.361077 41.361077l0 370.996328q0 41.361077-41.361077 41.361077l-370.996328 0q-41.361077 0-41.361077-41.361077l0-370.996328q0-41.361077 41.361077-41.361077Z" fill="#21e7db" p-id="15285"></path><path d="M577.801714 0m41.361077 0l370.996328 0q41.361077 0 41.361077 41.361077l0 370.996328q0 41.361077-41.361077 41.361077l-370.996328 0q-41.361077 0-41.361077-41.361077l0-370.996328q0-41.361077 41.361077-41.361077Z" fill="#13227a" p-id="15286" data-spm-anchor-id="a313x.search_index.0.i35.70d93a81lSPCpe" class="selected"></path><path d="M0 570.281518m41.361077 0l370.996328 0q41.361077 0 41.361077 41.361077l0 370.996328q0 41.361077-41.361077 41.361077l-370.996328 0q-41.361077 0-41.361077-41.361077l0-370.996328q0-41.361077 41.361077-41.361077Z" fill="#FF3366" p-id="15287"></path><path d="M804.660955 571.534884c125.336597 0 226.859241 101.522644 226.859241 225.605875 0 125.336597-101.522644 226.859241-226.859241 226.859241s-226.859241-101.522644-226.859241-226.859241c0-124.083231 101.522644-225.605875 226.859241-225.605875z m0 70.188494c86.482252 0 156.670747 70.188494 156.670746 155.417381 0 86.482252-70.188494 156.670747-156.670746 156.670747s-155.417381-70.188494-155.417381-156.670747c0-85.228886 68.935129-155.417381 155.417381-155.417381z" fill="#2c2c2c" p-id="15288" data-spm-anchor-id="a313x.search_index.0.i36.70d93a81lSPCpe" class=""></path></svg>