<?xml version="1.0" standalone="no"?><!DOCTYPE svg PUBLIC "-//W3C//DTD SVG 1.1//EN" "http://www.w3.org/Graphics/SVG/1.1/DTD/svg11.dtd"><svg t="1753949979235" class="icon" viewBox="0 0 1024 1024" version="1.1" xmlns="http://www.w3.org/2000/svg" p-id="4277" xmlns:xlink="http://www.w3.org/1999/xlink" width="200" height="200"><path d="M759.69 1000.54H264.31c-61.1 0-110.8-49.71-110.8-110.8V501.31c0-61.1 49.71-110.8 110.8-110.8H759.7c61.1 0 110.8 49.71 110.8 110.8v388.43c0 61.1-49.71 110.8-110.8 110.8zM264.31 463.57c-20.81 0-37.74 16.93-37.74 37.74v388.43c0 20.81 16.93 37.74 37.74 37.74H759.7c20.81 0 37.74-16.93 37.74-37.74V501.31c0-20.81-16.93-37.74-37.74-37.74H264.31z" fill="#474747" p-id="4278"></path><path d="M607.43 656.43c0-51.08-42.94-92.32-94.61-89.52-45.39 2.46-82.1 39.14-84.57 84.53-1.9 34.93 16.32 65.86 44.11 82.24 10.63 6.27 16.97 17.87 16.97 30.21v68.2c0 14.86 11.55 27.51 26.4 28.04 15.59 0.55 28.4-11.92 28.4-27.38v-67.63c0-12.86 7.08-24.53 18.22-30.94 26.92-15.49 45.08-44.54 45.08-77.76z m-89.66 34.86c-19.22 0-34.86-15.64-34.86-34.86s15.64-34.86 34.86-34.86 34.86 15.64 34.86 34.86-15.64 34.86-34.86 34.86z" fill="#4F95FC" p-id="4279"></path><path d="M751.17 407.2h-73.06V260.45c0-90.39-73.53-163.92-163.92-163.92s-163.92 73.53-163.92 163.92v60.29h-73.06v-60.29c0-130.67 106.31-236.99 236.99-236.99s236.98 106.31 236.98 236.99V407.2z" fill="#474747" p-id="4280"></path></svg>